<?xml version="1.0" encoding="UTF-8"?>
<svg id="b" data-name="Layer 2" xmlns="http://www.w3.org/2000/svg" viewBox="0 0 122.87 122.87">
  <g id="c" data-name="Layer 1">
    <g>
      <path d="M64.71,116.17c-.26-2.41-6.88-1.43-8.89,2.15l-3.16-.44c.54-1.4,1.29-2.42,2.37-3.27,3.89-3.04,8.65-4.21,12.86-1.29,1.37-.85,2.53-1.85,3.48-3.02-2.07-4.49-.65-10.14,2.93-13.37,1.61-1.46,3.52-2.24,5.76-2.2l1.3-4.78c-1.29-.97-2.42-2.01-3.24-3.4-2.67-4.54-2.75-11.05,1.59-14.35l-1.92-5.2c-6.21.69-10.78-6.01-10.41-12l-3.7-2.51c-4.59,2.61-10.2,1.17-13.03-3.13l-4.92.9c-.85,4.42-4.19,6.56-8.57,7.28-1.85,2.56-2,5.75-1.28,8.76.81,3.37,2.83,5.97,5.98,7.44l3.48,1.63c.63.29,1.2.97,1.26,1.55.19,1.95-1.97,2.98-4.22,3.05-3.3.11-6.49-.72-9.43-2.29-5.74-3.06-9.78-8.32-11.6-14.57-1.63-5.62-1.31-11.45.56-16.96,2.4-7.09,7.41-12.64,14.02-16.03,18.68-9.58,40.31-5.28,55.52,8.68,6.51,5.97,11.69,13.14,15.48,21.14,4.11,8.72,6.45,18.13,6.93,27.78-7.19,13.19-19.11,23.29-33.52,27.97,10.98-13.58,12.49-30.26,6.69-46.29-3.02-7.94-8.17-14.77-15.1-19.68-7.85-5.57-17.45-7.85-26.68-4.78-5.31,1.77-10.19,6.03-11,11.74,3.76-7.96,14.09-11.25,22.49-10.09,4.85.67,8.7,3.72,12.64,6.43,2.69.55,4.99,1.95,6.67,4.13,1.24,1.61,2.24,3.33,2.99,5.24l3.63,9.22c5.44,4,6.44,12.27,2.23,17.57l-1.5,6.51c1.29.8,1.29,3.26,1.22,5.08-.19,5.46-4.61,10.26-9.93,11.15l-5.26,4.83-.24,1.44-2.63.27-3.03.06c.52-.67,1.28-1.47,1.18-2.35ZM27.99,45.16c2.86-5.23,7.12-9.23,12.39-11.85l7.51-3.41c-5.38.44-10.28,2.45-14.5,5.57-9.37,6.94-12.77,19.27-7.74,29.6-1.64-7.04-1.06-13.7,2.34-19.92ZM74.53,60.59c-.9-1.69-2.22-2.89-4.06-3.37.23,2.99,2.05,5.6,5.06,6.63-.2-1.17-.54-2.19-1-3.27ZM82.49,84.86c1.05-2.96.69-6.03-.83-8.6-.2-.34-.85-.82-1.16-.69-2.08,2.49-1.4,7.41.57,10.08.47-.04,1.26-.34,1.42-.79ZM78.55,98.28c-3.75,1.18-5.77,5.53-4.76,9.24,1.38-.05,2.52-.68,3.44-1.65,1.92-2.04,2.88-5.17,1.32-7.59Z"/>
      <path d="M61.43,122.87C27.56,122.87,0,95.31,0,61.43S27.56,0,61.43,0s61.43,27.56,61.43,61.43-27.56,61.44-61.43,61.44ZM61.43,5.09C30.36,5.09,5.09,30.36,5.09,61.43s25.28,56.35,56.35,56.35,56.35-25.28,56.35-56.35S92.51,5.09,61.43,5.09Z"/>
    </g>
  </g>
</svg>