<?xml version="1.0" encoding="UTF-8"?>
<svg id="b" data-name="Layer 2" xmlns="http://www.w3.org/2000/svg" viewBox="0 0 545.98 42.71">
  <g id="c" data-name="Layer 1">
    <g>
      <path d="M35.94,4.59c3.56,3.06,5.34,7.43,5.34,13.11h-12.66c0-2.4-.63-4.3-1.89-5.7-1.26-1.4-3.05-2.1-5.37-2.1-2.68,0-4.65.84-5.91,2.52-1.26,1.68-1.89,4.02-1.89,7.02v3.84c0,2.96.63,5.29,1.89,6.99,1.26,1.7,3.19,2.55,5.79,2.55s4.5-.66,5.82-1.98c1.32-1.32,1.98-3.18,1.98-5.58h12.24c0,5.64-1.73,9.96-5.19,12.96-3.46,3-8.35,4.5-14.67,4.5-7.04,0-12.37-1.8-15.99-5.4C1.81,33.72,0,28.4,0,21.36S1.81,9,5.43,5.4C9.05,1.8,14.38,0,21.42,0c6.12,0,10.96,1.53,14.52,4.59Z"/>
      <path d="M48.41.72h13.26v30.72h21.18v10.56h-34.44V.72Z"/>
      <path d="M89.03,42V.72h13.26v41.28h-13.26Z"/>
      <path d="M111.77.72h35.7v9.9h-22.44v5.7h19.2v9.48h-19.2v6.3h22.86v9.9h-36.12V.72Z"/>
      <path d="M184.6,42l-17.34-20.04v20.04h-12.18V.72h11.58l17.34,20.34V.72h12.18v41.28h-11.58Z"/>
      <path d="M228.81,11.28v30.72h-13.26V11.28h-13.56V.72h40.32v10.56h-13.5Z"/>
    </g>
    <g>
      <path d="M276.74,42.65c-4.28,0-7.95-.78-11.01-2.34-3.06-1.56-5.42-3.92-7.08-7.08-1.66-3.16-2.49-7.12-2.49-11.88s.83-8.77,2.49-11.91c1.66-3.14,4.02-5.49,7.08-7.05,3.06-1.56,6.73-2.34,11.01-2.34s7.95.78,11.01,2.34c3.06,1.56,5.42,3.91,7.08,7.05,1.66,3.14,2.49,7.11,2.49,11.91s-.83,8.72-2.49,11.88c-1.66,3.16-4.02,5.52-7.08,7.08-3.06,1.56-6.73,2.34-11.01,2.34ZM276.74,37.74c2.24,0,4.27-.3,6.09-.9,1.82-.6,3.36-1.55,4.62-2.85,1.26-1.3,2.23-2.94,2.91-4.92.68-1.98,1.02-4.33,1.02-7.05v-1.26c0-2.76-.34-5.13-1.02-7.11-.68-1.98-1.65-3.62-2.91-4.92-1.26-1.3-2.8-2.25-4.62-2.85-1.82-.6-3.85-.9-6.09-.9s-4.32.3-6.12.9-3.34,1.55-4.62,2.85c-1.28,1.3-2.25,2.94-2.91,4.92-.66,1.98-.99,4.35-.99,7.11v1.26c0,2.72.33,5.07.99,7.05.66,1.98,1.63,3.62,2.91,4.92,1.28,1.3,2.82,2.25,4.62,2.85,1.8.6,3.84.9,6.12.9Z"/>
      <path d="M323.11,42.65c-4.2,0-7.76-.77-10.68-2.31-2.92-1.54-5.15-3.88-6.69-7.02-1.54-3.14-2.31-7.13-2.31-11.97,0-7.16,1.74-12.5,5.22-16.02,3.48-3.52,8.32-5.28,14.52-5.28,3.52,0,6.64.57,9.36,1.71,2.72,1.14,4.85,2.86,6.39,5.16,1.54,2.3,2.31,5.19,2.31,8.67h-5.76c0-2.4-.51-4.38-1.53-5.94-1.02-1.56-2.45-2.73-4.29-3.51-1.84-.78-4-1.17-6.48-1.17-2.88,0-5.36.56-7.44,1.68-2.08,1.12-3.66,2.85-4.74,5.19-1.08,2.34-1.62,5.35-1.62,9.03v1.26c0,3.64.54,6.61,1.62,8.91,1.08,2.3,2.65,3.99,4.71,5.07,2.06,1.08,4.55,1.62,7.47,1.62,2.56,0,4.77-.38,6.63-1.14,1.86-.76,3.3-1.93,4.32-3.51s1.53-3.57,1.53-5.97h5.58c0,3.56-.79,6.48-2.37,8.76-1.58,2.28-3.73,3.98-6.45,5.1-2.72,1.12-5.82,1.68-9.3,1.68Z"/>
      <path d="M358.09,41.94V5.76h-14.1V.78h34.02v4.98h-14.22v36.18h-5.7Z"/>
      <path d="M401.46,42.65c-4.28,0-7.95-.78-11.01-2.34-3.06-1.56-5.42-3.92-7.08-7.08-1.66-3.16-2.49-7.12-2.49-11.88s.83-8.77,2.49-11.91c1.66-3.14,4.02-5.49,7.08-7.05,3.06-1.56,6.73-2.34,11.01-2.34s7.95.78,11.01,2.34c3.06,1.56,5.42,3.91,7.08,7.05,1.66,3.14,2.49,7.11,2.49,11.91s-.83,8.72-2.49,11.88c-1.66,3.16-4.02,5.52-7.08,7.08-3.06,1.56-6.73,2.34-11.01,2.34ZM401.46,37.74c2.24,0,4.27-.3,6.09-.9,1.82-.6,3.36-1.55,4.62-2.85,1.26-1.3,2.23-2.94,2.91-4.92.68-1.98,1.02-4.33,1.02-7.05v-1.26c0-2.76-.34-5.13-1.02-7.11-.68-1.98-1.65-3.62-2.91-4.92s-2.8-2.25-4.62-2.85c-1.82-.6-3.85-.9-6.09-.9s-4.32.3-6.12.9c-1.8.6-3.34,1.55-4.62,2.85-1.28,1.3-2.25,2.94-2.91,4.92-.66,1.98-.99,4.35-.99,7.11v1.26c0,2.72.33,5.07.99,7.05.66,1.98,1.63,3.62,2.91,4.92,1.28,1.3,2.82,2.25,4.62,2.85,1.8.6,3.84.9,6.12.9Z"/>
      <path d="M430.26,41.94V.78h20.34c2.84,0,5.2.53,7.08,1.59,1.88,1.06,3.29,2.53,4.23,4.41.94,1.88,1.41,4.06,1.41,6.54s-.52,4.75-1.56,6.69c-1.04,1.94-2.51,3.45-4.41,4.53-1.9,1.08-4.17,1.62-6.81,1.62h-14.58v15.78h-5.7ZM435.96,21.24h14.22c2.24,0,4.03-.7,5.37-2.1s2.01-3.32,2.01-5.76c0-1.64-.28-3.02-.84-4.14-.56-1.12-1.38-1.99-2.46-2.61-1.08-.62-2.44-.93-4.08-.93h-14.22v15.54Z"/>
      <path d="M486.83,42.65c-3.48,0-6.48-.56-9-1.68-2.52-1.12-4.45-2.89-5.79-5.31-1.34-2.42-2.01-5.53-2.01-9.33V.78h5.7v26.16c0,3.6.97,6.3,2.91,8.1,1.94,1.8,4.67,2.7,8.19,2.7s6.34-.9,8.34-2.7c2-1.8,3-4.5,3-8.1V.78h5.64v25.56c0,3.8-.68,6.91-2.04,9.33-1.36,2.42-3.31,4.19-5.85,5.31-2.54,1.12-5.57,1.68-9.09,1.68Z"/>
      <path d="M529.12,42.65c-2.24,0-4.39-.22-6.45-.66-2.06-.44-3.89-1.15-5.49-2.13s-2.87-2.25-3.81-3.81c-.94-1.56-1.41-3.48-1.41-5.76,0-.2,0-.4.03-.6.02-.2.03-.4.03-.6h5.76c0,.12,0,.31-.03.57-.02.26-.03.49-.03.69,0,1.6.48,2.96,1.44,4.08.96,1.12,2.29,1.95,3.99,2.49,1.7.54,3.63.81,5.79.81.96,0,1.97-.06,3.03-.18,1.06-.12,2.08-.33,3.06-.63.98-.3,1.86-.7,2.64-1.2.78-.5,1.4-1.12,1.86-1.86.46-.74.69-1.65.69-2.73,0-1.36-.39-2.49-1.17-3.39-.78-.9-1.81-1.64-3.09-2.22-1.28-.58-2.73-1.1-4.35-1.56-1.62-.46-3.29-.91-5.01-1.35s-3.39-.95-5.01-1.53c-1.62-.58-3.07-1.3-4.35-2.16-1.28-.86-2.31-1.93-3.09-3.21-.78-1.28-1.17-2.84-1.17-4.68,0-1.72.35-3.26,1.05-4.62.7-1.36,1.74-2.51,3.12-3.45,1.38-.94,3.09-1.66,5.13-2.16s4.38-.75,7.02-.75c2.16,0,4.17.23,6.03.69,1.86.46,3.5,1.16,4.92,2.1,1.42.94,2.53,2.13,3.33,3.57.8,1.44,1.2,3.18,1.2,5.22v.72h-5.64v-.9c0-1.36-.42-2.52-1.26-3.48-.84-.96-1.99-1.7-3.45-2.22-1.46-.52-3.11-.78-4.95-.78-2.4,0-4.4.23-6,.69-1.6.46-2.79,1.12-3.57,1.98-.78.86-1.17,1.83-1.17,2.91,0,1.24.39,2.28,1.17,3.12.78.84,1.81,1.53,3.09,2.07,1.28.54,2.74,1.03,4.38,1.47,1.64.44,3.31.89,5.01,1.35,1.7.46,3.36.98,4.98,1.56,1.62.58,3.08,1.3,4.38,2.16,1.3.86,2.33,1.94,3.09,3.24.76,1.3,1.14,2.89,1.14,4.77,0,2.92-.72,5.29-2.16,7.11-1.44,1.82-3.42,3.15-5.94,3.99-2.52.84-5.44,1.26-8.76,1.26Z"/>
    </g>
  </g>
</svg>