<?xml version="1.0" encoding="UTF-8"?>
<svg id="b" data-name="Layer 2" xmlns="http://www.w3.org/2000/svg" viewBox="0 0 80.75 89.28">
  <g id="c" data-name="Layer 1">
    <path d="M29.16,17.42c9.71.66,17.72,6.42,22.88,14.55,4.55,7.17,6.72,15.44,6.5,23.94-.54,13.02-5.2,24.76-14.2,33.33l33.43-.07c3.13-9.15,3.27-24.92,2.78-34.46-.47-8.83-2.54-17.44-6.3-25.43C65.46,10.58,47.08-1.61,26.16.17c-7.41.63-14.15,3.87-19.06,9.52C2.76,14.68.1,20.83,0,27.61c-.07,4.42,1.08,8.83,3.36,12.62,2.38,3.95,5.71,6.99,9.85,8.53,2.11.78,4.5.66,5.06-1.22.17-.55-.1-1.4-.57-1.91l-2.36-2.56c-2.39-2.59-3.5-6.13-2.92-9.61.5-2.99,1.85-5.8,4.47-7.43,4.32.99,8.22.28,10.69-3.49l4.89,1.03c.99,5.06,5.63,8.52,10.87,7.84l2.48,3.72c-2.62,5.4-.92,13.33,5.08,15.05l-.19,5.54c-5.27,1.4-7.66,7.46-6.91,12.67.23,1.59.88,2.98,1.71,4.37l-3.02,3.93c-2.06-.88-4.13-.88-6.17-.15-4.54,1.64-7.99,6.32-7.78,11.26-1.24.68-2.6,1.13-4.08,1.41l-.03.06,15.04-.03c2.12-1.18,3.9-2.98,4.92-5.24.75-1.66,1.69-3.94.8-5.17l3.86-5.45c5.91-3.3,8.12-11.33,4.6-17.1l.14-9.91c.03-2.05-.25-4.03-.78-5.98-.72-2.66-2.32-4.82-4.6-6.35-2.61-4-5.02-8.28-9.25-10.74-7.33-4.27-18.13-5.14-24.63.8,2.91-4.97,9.05-7.06,14.63-6.69ZM35.64,85.92c-1.22.55-2.51.7-3.81.22.47-3.82,3.98-7.07,7.9-6.74.53,2.82-1.55,5.37-4.1,6.52ZM50.96,60.21c.44,2.96-.4,5.94-2.49,8.27-.32.35-1.16.33-1.62.19-.82-3.22.43-8.03,3.29-9.54.34,0,.76.69.81,1.08ZM50.31,43.01c.02,1.17-.05,2.24-.31,3.4-2.39-2.1-3.09-5.21-2.17-8.06,1.52,1.14,2.29,2.76,2.48,4.66ZM13.11,11.07C7.6,15.54,4.54,21.47,3.39,28.61c-.74-11.46,7.09-21.59,18.39-24.45,5.09-1.29,10.39-1.29,15.53.34l-8.24.3c-5.87.43-11.33,2.51-15.96,6.26Z"/>
  </g>
</svg>